<svg width="971" height="621" viewBox="0 0 971 621" fill="none" xmlns="http://www.w3.org/2000/svg">
<g clip-path="url(#clip0_107_141)">
<rect width="621" height="971" transform="translate(0 621) rotate(-90)" fill="#A5B1F2" fill-opacity="0.08"/>
<g filter="url(#filter0_b_107_141)">
<rect y="621" width="748" height="1123" transform="rotate(-90 0 621)" fill="#0D0E13"/>
</g>
<g filter="url(#filter1_f_107_141)">
<path d="M819.904 310.71L827.443 319.772L839.11 318.082L832.822 328.053L838.033 338.627L826.607 335.727L818.162 343.951L817.388 332.189L806.957 326.698L817.905 322.327L819.904 310.71Z" fill="#9FAFFF"/>
<path d="M819.904 310.71L827.443 319.772L839.11 318.082L832.822 328.053L838.033 338.627L826.607 335.727L818.162 343.951L817.388 332.189L806.957 326.698L817.905 322.327L819.904 310.71Z" fill="white" fill-opacity="0.15"/>
</g>
<g filter="url(#filter2_f_107_141)">
<path d="M227.625 107.654L232.364 113.35L239.698 112.288L235.745 118.555L239.021 125.202L231.839 123.379L226.53 128.549L226.044 121.155L219.487 117.703L226.369 114.956L227.625 107.654Z" fill="#9FAFFF"/>
<path d="M227.625 107.654L232.364 113.35L239.698 112.288L235.745 118.555L239.021 125.202L231.839 123.379L226.53 128.549L226.044 121.155L219.487 117.703L226.369 114.956L227.625 107.654Z" fill="white" fill-opacity="0.15"/>
</g>
<path d="M166.824 637.944C166.824 637.944 364.221 533.827 476.496 445.715C588.77 357.604 834.958 652.071 978.783 644.903C1122.61 637.735 941.132 749.198 848.099 741.678C755.065 734.158 353.383 709.331 353.383 709.331L163.959 674.171L153.806 641.458L166.824 637.944Z" fill="#7E93FC"/>
<path d="M166.824 637.944C166.824 637.944 364.221 533.827 476.496 445.715C588.77 357.604 834.958 652.071 978.783 644.903C1122.61 637.735 941.132 749.198 848.099 741.678C755.065 734.158 353.383 709.331 353.383 709.331L163.959 674.171L153.806 641.458L166.824 637.944Z" fill="url(#paint0_linear_107_141)"/>
<g opacity="0.95">
<path d="M395.235 576.375L382.732 588.343L394.351 588.343L376.923 598.886L394.176 599.782L374.278 615.502L395.235 616.398L374.278 630.331L395.235 630.871L395.235 576.375Z" fill="#88ECA4"/>
<path d="M395.235 576.375L382.732 588.343L394.351 588.343L376.923 598.886L394.176 599.782L374.278 615.502L395.235 616.398L374.278 630.331L395.235 630.871L395.235 576.375Z" fill="url(#paint1_linear_107_141)"/>
<path d="M395.252 576.619L409.921 588.537L396.283 588.537L416.74 599.029L396.492 599.92L419.84 615.573L395.252 616.464L419.84 630.336L395.252 630.87L395.252 576.619Z" fill="#88ECA4"/>
<path d="M395.252 576.619L409.921 588.537L396.283 588.537L416.74 599.029L396.492 599.92L419.84 615.573L395.252 616.464L419.84 630.336L395.252 630.87L395.252 576.619Z" fill="url(#paint2_linear_107_141)"/>
</g>
<path d="M-46.6289 667.16C-46.6289 667.16 208.84 499.066 243.012 513.81C277.183 528.554 422.928 652.071 484.956 648.553C546.985 645.035 -46.6289 667.16 -46.6289 667.16Z" fill="#C6C5E3"/>
<path d="M-46.6289 667.16C-46.6289 667.16 208.84 499.066 243.012 513.81C277.183 528.554 422.928 652.071 484.956 648.553C546.985 645.035 -46.6289 667.16 -46.6289 667.16Z" fill="#7E93FC"/>
<g opacity="0.95">
<path d="M241.336 540.583L221.505 558.535L239.935 558.535L212.289 574.349L239.656 575.693L208.095 599.273L241.336 600.617L208.095 621.516L241.336 622.326L241.336 540.583Z" fill="#88ECA4"/>
<path d="M241.336 540.583L221.505 558.535L239.935 558.535L212.289 574.349L239.656 575.693L208.095 599.273L241.336 600.617L208.095 621.516L241.336 622.326L241.336 540.583Z" fill="url(#paint3_linear_107_141)"/>
<path d="M241.337 540.948L264.605 558.824L242.973 558.824L275.422 574.564L243.304 575.9L280.338 599.379L241.337 600.715L280.338 621.522L241.337 622.324L241.337 540.948Z" fill="#88ECA4"/>
<path d="M241.337 540.948L264.605 558.824L242.973 558.824L275.422 574.564L243.304 575.9L280.338 599.379L241.337 600.715L280.338 621.522L241.337 622.324L241.337 540.948Z" fill="url(#paint4_linear_107_141)"/>
</g>
<g opacity="0.95">
<path d="M106.887 575.21L95.4571 585.557L106.079 585.557L90.1459 594.672L105.919 595.447L87.7285 609.037L106.887 609.812L87.7285 621.857L106.887 622.324L106.887 575.21Z" fill="#88ECA4"/>
<path d="M106.887 575.21L95.4571 585.557L106.079 585.557L90.1459 594.672L105.919 595.447L87.7285 609.037L106.887 609.812L87.7285 621.857L106.887 622.324L106.887 575.21Z" fill="url(#paint5_linear_107_141)"/>
<path d="M106.892 575.421L120.303 585.724L107.835 585.724L126.537 594.796L108.026 595.566L129.371 609.098L106.892 609.868L129.371 621.861L106.892 622.322L106.892 575.421Z" fill="#88ECA4"/>
<path d="M106.892 575.421L120.303 585.724L107.835 585.724L126.537 594.796L108.026 595.566L129.371 609.098L106.892 609.868L129.371 621.861L106.892 622.322L106.892 575.421Z" fill="url(#paint6_linear_107_141)"/>
</g>
<path d="M100.591 341.273L105.761 347.487L113.761 346.329L109.449 353.166L113.023 360.416L105.188 358.428L99.3965 364.067L98.8662 356.001L91.7134 352.236L99.2206 349.239L100.591 341.273Z" fill="#9FAFFF"/>
<path d="M100.591 341.273L105.761 347.487L113.761 346.329L109.449 353.166L113.023 360.416L105.188 358.428L99.3965 364.067L98.8662 356.001L91.7134 352.236L99.2206 349.239L100.591 341.273Z" fill="white" fill-opacity="0.15"/>
<path d="M769.195 76.6272L772.642 80.7697L777.975 79.9975L775.1 84.5556L777.483 89.3892L772.26 88.0638L768.399 91.8233L768.045 86.446L763.277 83.9359L768.281 81.938L769.195 76.6272Z" fill="#9FAFFF"/>
<path d="M769.195 76.6272L772.642 80.7697L777.975 79.9975L775.1 84.5556L777.483 89.3892L772.26 88.0638L768.399 91.8233L768.045 86.446L763.277 83.9359L768.281 81.938L769.195 76.6272Z" fill="white" fill-opacity="0.15"/>
</g>
<defs>
<filter id="filter0_b_107_141" x="-10" y="-137" width="1143" height="768" filterUnits="userSpaceOnUse" color-interpolation-filters="sRGB">
<feFlood flood-opacity="0" result="BackgroundImageFix"/>
<feGaussianBlur in="BackgroundImageFix" stdDeviation="5"/>
<feComposite in2="SourceAlpha" operator="in" result="effect1_backgroundBlur_107_141"/>
<feBlend mode="normal" in="SourceGraphic" in2="effect1_backgroundBlur_107_141" result="shape"/>
</filter>
<filter id="filter1_f_107_141" x="797.957" y="301.71" width="50.1523" height="51.2412" filterUnits="userSpaceOnUse" color-interpolation-filters="sRGB">
<feFlood flood-opacity="0" result="BackgroundImageFix"/>
<feBlend mode="normal" in="SourceGraphic" in2="BackgroundImageFix" result="shape"/>
<feGaussianBlur stdDeviation="4.5" result="effect1_foregroundBlur_107_141"/>
</filter>
<filter id="filter2_f_107_141" x="210.487" y="98.6538" width="38.2104" height="38.8945" filterUnits="userSpaceOnUse" color-interpolation-filters="sRGB">
<feFlood flood-opacity="0" result="BackgroundImageFix"/>
<feBlend mode="normal" in="SourceGraphic" in2="BackgroundImageFix" result="shape"/>
<feGaussianBlur stdDeviation="4.5" result="effect1_foregroundBlur_107_141"/>
</filter>
<linearGradient id="paint0_linear_107_141" x1="340.1" y1="496.143" x2="728.231" y2="765.5" gradientUnits="userSpaceOnUse">
<stop stop-color="#5D76F4"/>
<stop offset="1" stop-color="#A4B3FF"/>
</linearGradient>
<linearGradient id="paint1_linear_107_141" x1="384.632" y1="560.574" x2="385.236" y2="630.867" gradientUnits="userSpaceOnUse">
<stop stop-color="#E5E87C"/>
<stop offset="1" stop-color="#E5E87C" stop-opacity="0"/>
</linearGradient>
<linearGradient id="paint2_linear_107_141" x1="407.4" y1="560.889" x2="407.911" y2="630.867" gradientUnits="userSpaceOnUse">
<stop stop-color="#E5E87C"/>
<stop offset="1" stop-color="#E5E87C" stop-opacity="0"/>
</linearGradient>
<linearGradient id="paint3_linear_107_141" x1="224.518" y1="516.883" x2="225.375" y2="622.321" gradientUnits="userSpaceOnUse">
<stop stop-color="#72AB72"/>
<stop offset="1" stop-color="#E5E87C" stop-opacity="0"/>
</linearGradient>
<linearGradient id="paint4_linear_107_141" x1="260.606" y1="517.354" x2="261.33" y2="622.32" gradientUnits="userSpaceOnUse">
<stop stop-color="#E5E87C"/>
<stop offset="1" stop-color="#E5E87C" stop-opacity="0"/>
</linearGradient>
<linearGradient id="paint5_linear_107_141" x1="97.1941" y1="561.551" x2="97.6881" y2="622.321" gradientUnits="userSpaceOnUse">
<stop stop-color="#E5E87C"/>
<stop offset="1" stop-color="#E5E87C" stop-opacity="0"/>
</linearGradient>
<linearGradient id="paint6_linear_107_141" x1="117.998" y1="561.823" x2="118.415" y2="622.321" gradientUnits="userSpaceOnUse">
<stop stop-color="#E5E87C"/>
<stop offset="1" stop-color="#E5E87C" stop-opacity="0"/>
</linearGradient>
<clipPath id="clip0_107_141">
<rect width="621" height="971" fill="white" transform="translate(0 621) rotate(-90)"/>
</clipPath>
</defs>
</svg>
